<svg fill="none" height="16" viewBox="0 0 16 16" width="16" xmlns="http://www.w3.org/2000/svg"><g fill="#212121"><path d="m2.5 2c-.27614 0-.5.22386-.5.5s.22386.5.5.5h.2457c.22324 0 .41943.14799.48076.36264l1.58556 5.54944c.18398.64395.77256 1.08792 1.44228 1.08792h4.5687c.6133 0 1.1649-.37343 1.3927-.94291l1.4743-3.6857c.2627-.65686-.2211-1.37139-.9285-1.37139h-8.31292l-.2606-.91208c-.18398-.64395-.77256-1.08792-1.44228-1.08792zm3.27354 6.63736-1.03925-3.63736h8.02721l-1.4743 3.6857c-.0759.18982-.2598.3143-.4642.3143h-4.5687c-.22324 0-.41943-.14799-.48076-.36264z"/><path d="m6.5 14c.82843 0 1.5-.6716 1.5-1.5s-.67157-1.5-1.5-1.5-1.5.6716-1.5 1.5.67157 1.5 1.5 1.5zm0-1c-.27614 0-.5-.2239-.5-.5s.22386-.5.5-.5.5.2239.5.5-.22386.5-.5.5z"/><path d="m10.5 14c.8284 0 1.5-.6716 1.5-1.5s-.6716-1.5-1.5-1.5c-.82843 0-1.5.6716-1.5 1.5s.67157 1.5 1.5 1.5zm0-1c-.2761 0-.5-.2239-.5-.5s.2239-.5.5-.5.5.2239.5.5-.2239.5-.5.5z"/></g></svg>